<svg xmlns="http://www.w3.org/2000/svg" viewBox="0 0 28 28"><path fill="#ee2ea1" d="M17.497 21.097c-1.234 0-2.243-.465-3.067-1.31-.615-.63-.985-1.436-1.184-2.374-1.85-.223-3.246-1.81-3.246-3.73v-2.48c0-.116.13-.203.247-.203H11V8.67c0-.47.532-.85 1-.85.468 0 1 .38 1 .85V11h2V8.67c0-.47.532-.85 1-.85.468 0 1 .38 1 .85V11h.828c.117 0 .172.087.172.204v2.48c0 1.81-1.262 3.325-2.96 3.678.438 1.476 1.392 2.033 2.447 2.033.995 0 2.513-.47 2.513-1.272V6L8 4v20h12v-3.696c0 .514-1.546.793-2.503.793z"/></svg>
